<mxfile host="app.diagrams.net" modified="2023-09-22T23:56:18.298Z" agent="Mozilla/5.0 (Windows NT 10.0; Win64; x64) AppleWebKit/537.36 (KHTML, like Gecko) Chrome/116.0.0.0 Safari/537.36" etag="9-f3A2Do5QQj7Sz-iVPA" version="21.8.0" type="device">
  <diagram name="Page-1" id="daVLpgbslfiKangD3EKl">
    <mxGraphModel dx="940" dy="496" grid="1" gridSize="10" guides="1" tooltips="1" connect="1" arrows="1" fold="1" page="1" pageScale="1" pageWidth="850" pageHeight="1100" math="0" shadow="0">
      <root>
        <mxCell id="0" />
        <mxCell id="1" parent="0" />
        <mxCell id="KhEppakhv04ynsI6RAFq-1" value="Super Admin" style="shape=umlActor;verticalLabelPosition=bottom;verticalAlign=top;html=1;outlineConnect=0;" vertex="1" parent="1">
          <mxGeometry x="40" y="360" width="50" height="80" as="geometry" />
        </mxCell>
        <mxCell id="KhEppakhv04ynsI6RAFq-9" value="Manage Data/ Reports" style="ellipse;whiteSpace=wrap;html=1;" vertex="1" parent="1">
          <mxGeometry x="160" y="365" width="120" height="70" as="geometry" />
        </mxCell>
        <mxCell id="KhEppakhv04ynsI6RAFq-18" value="" style="endArrow=none;html=1;rounded=0;entryX=0;entryY=0.5;entryDx=0;entryDy=0;exitX=0.5;exitY=0.5;exitDx=0;exitDy=0;exitPerimeter=0;" edge="1" parent="1" target="KhEppakhv04ynsI6RAFq-9" source="KhEppakhv04ynsI6RAFq-1">
          <mxGeometry width="50" height="50" relative="1" as="geometry">
            <mxPoint x="80" y="400" as="sourcePoint" />
            <mxPoint x="90" y="560" as="targetPoint" />
          </mxGeometry>
        </mxCell>
        <mxCell id="KhEppakhv04ynsI6RAFq-25" value="&amp;lt;&amp;lt;includes&amp;gt;&amp;gt;" style="endArrow=open;endSize=12;dashed=1;html=1;rounded=0;exitX=1.027;exitY=0.606;exitDx=0;exitDy=0;entryX=0;entryY=0.5;entryDx=0;entryDy=0;exitPerimeter=0;" edge="1" parent="1" target="KhEppakhv04ynsI6RAFq-24">
          <mxGeometry x="-0.0185" y="-9" width="160" relative="1" as="geometry">
            <mxPoint x="353.24" y="172.42000000000007" as="sourcePoint" />
            <mxPoint x="463" y="124" as="targetPoint" />
            <mxPoint as="offset" />
          </mxGeometry>
        </mxCell>
        <mxCell id="KhEppakhv04ynsI6RAFq-29" value="&lt;span style=&quot;background-color: rgb(255, 255, 255);&quot;&gt;Data Tampering&lt;/span&gt;" style="ellipse;whiteSpace=wrap;html=1;fillColor=#000000;" vertex="1" parent="1">
          <mxGeometry x="850" y="435" width="110" height="60" as="geometry" />
        </mxCell>
        <mxCell id="KhEppakhv04ynsI6RAFq-32" value="Merge patient reports" style="ellipse;whiteSpace=wrap;html=1;" vertex="1" parent="1">
          <mxGeometry x="380" y="440" width="120" height="70" as="geometry" />
        </mxCell>
        <mxCell id="KhEppakhv04ynsI6RAFq-33" value="&amp;lt;&amp;lt;extends&amp;gt;&amp;gt;" style="endArrow=open;endSize=12;dashed=1;html=1;rounded=0;exitX=1;exitY=1;exitDx=0;exitDy=0;" edge="1" parent="1" target="KhEppakhv04ynsI6RAFq-32" source="KhEppakhv04ynsI6RAFq-9">
          <mxGeometry width="160" relative="1" as="geometry">
            <mxPoint x="350" y="665" as="sourcePoint" />
            <mxPoint x="450" y="610" as="targetPoint" />
          </mxGeometry>
        </mxCell>
        <mxCell id="KhEppakhv04ynsI6RAFq-34" value="&amp;lt;&amp;lt;threatens&amp;gt;&amp;gt;" style="endArrow=open;endSize=12;dashed=1;html=1;rounded=0;entryX=1;entryY=0.5;entryDx=0;entryDy=0;" edge="1" parent="1" source="KhEppakhv04ynsI6RAFq-29" target="KhEppakhv04ynsI6RAFq-32">
          <mxGeometry x="-0.0185" y="-9" width="160" relative="1" as="geometry">
            <mxPoint x="439.5" y="320" as="sourcePoint" />
            <mxPoint x="580" y="655" as="targetPoint" />
            <mxPoint as="offset" />
          </mxGeometry>
        </mxCell>
        <mxCell id="KhEppakhv04ynsI6RAFq-36" value="&lt;span style=&quot;background-color: rgb(255, 255, 255);&quot;&gt;Collect Data&lt;/span&gt;" style="ellipse;whiteSpace=wrap;html=1;fillColor=#000000;" vertex="1" parent="1">
          <mxGeometry x="740" y="150" width="110" height="50" as="geometry" />
        </mxCell>
        <mxCell id="KhEppakhv04ynsI6RAFq-47" value="" style="endArrow=none;html=1;rounded=0;entryX=0;entryY=0.45;entryDx=0;entryDy=0;entryPerimeter=0;exitX=1;exitY=0.5;exitDx=0;exitDy=0;" edge="1" parent="1" source="KhEppakhv04ynsI6RAFq-36">
          <mxGeometry width="50" height="50" relative="1" as="geometry">
            <mxPoint x="680" y="360" as="sourcePoint" />
            <mxPoint x="1050" y="412.25" as="targetPoint" />
          </mxGeometry>
        </mxCell>
        <mxCell id="KhEppakhv04ynsI6RAFq-49" value="" style="endArrow=none;html=1;rounded=0;exitX=1;exitY=0.5;exitDx=0;exitDy=0;entryX=0;entryY=0.45;entryDx=0;entryDy=0;entryPerimeter=0;" edge="1" parent="1" source="KhEppakhv04ynsI6RAFq-29">
          <mxGeometry width="50" height="50" relative="1" as="geometry">
            <mxPoint x="1020" y="450" as="sourcePoint" />
            <mxPoint x="1050" y="412.25" as="targetPoint" />
          </mxGeometry>
        </mxCell>
        <mxCell id="KhEppakhv04ynsI6RAFq-52" value="&amp;lt;&amp;lt;prevents&amp;gt;&amp;gt;" style="endArrow=open;endSize=12;dashed=1;html=1;rounded=0;exitX=1;exitY=0.5;exitDx=0;exitDy=0;" edge="1" parent="1" target="KhEppakhv04ynsI6RAFq-31">
          <mxGeometry width="160" relative="1" as="geometry">
            <mxPoint x="590" y="395" as="sourcePoint" />
            <mxPoint x="460" y="672" as="targetPoint" />
            <Array as="points">
              <mxPoint x="640" y="390" />
            </Array>
          </mxGeometry>
        </mxCell>
        <mxCell id="KhEppakhv04ynsI6RAFq-53" value="Logging/ Monitor Activity" style="ellipse;whiteSpace=wrap;html=1;" vertex="1" parent="1">
          <mxGeometry x="830" y="655" width="120" height="70" as="geometry" />
        </mxCell>
        <mxCell id="KhEppakhv04ynsI6RAFq-54" value="AES Data Encryption" style="ellipse;whiteSpace=wrap;html=1;" vertex="1" parent="1">
          <mxGeometry x="580" y="585" width="120" height="70" as="geometry" />
        </mxCell>
        <mxCell id="KhEppakhv04ynsI6RAFq-55" value="&amp;lt;&amp;lt;detects&amp;gt;&amp;gt;" style="endArrow=open;endSize=12;dashed=1;html=1;rounded=0;entryX=0.5;entryY=1;entryDx=0;entryDy=0;exitX=0.654;exitY=0.027;exitDx=0;exitDy=0;exitPerimeter=0;" edge="1" parent="1" target="KhEppakhv04ynsI6RAFq-29" source="KhEppakhv04ynsI6RAFq-53">
          <mxGeometry x="-0.0185" y="-9" width="160" relative="1" as="geometry">
            <mxPoint x="920" y="550" as="sourcePoint" />
            <mxPoint x="820" y="673" as="targetPoint" />
            <mxPoint as="offset" />
          </mxGeometry>
        </mxCell>
        <mxCell id="KhEppakhv04ynsI6RAFq-56" value="&amp;lt;&amp;lt;prevents&amp;gt;&amp;gt;" style="endArrow=open;endSize=12;dashed=1;html=1;rounded=0;entryX=0;entryY=1;entryDx=0;entryDy=0;" edge="1" parent="1" source="KhEppakhv04ynsI6RAFq-54" target="KhEppakhv04ynsI6RAFq-29">
          <mxGeometry x="0.2713" y="-18" width="160" relative="1" as="geometry">
            <mxPoint x="820" y="760" as="sourcePoint" />
            <mxPoint x="920" y="722.5" as="targetPoint" />
            <mxPoint as="offset" />
          </mxGeometry>
        </mxCell>
        <mxCell id="KhEppakhv04ynsI6RAFq-57" value="GDPR Data upload/download Global policy" style="ellipse;whiteSpace=wrap;html=1;" vertex="1" parent="1">
          <mxGeometry x="590" y="295" width="120" height="70" as="geometry" />
        </mxCell>
        <mxCell id="KhEppakhv04ynsI6RAFq-58" value="&amp;lt;&amp;lt;threatens&amp;gt;&amp;gt;" style="endArrow=open;endSize=12;dashed=1;html=1;rounded=0;exitX=0;exitY=0.5;exitDx=0;exitDy=0;entryX=0.34;entryY=0.032;entryDx=0;entryDy=0;entryPerimeter=0;" edge="1" parent="1" source="KhEppakhv04ynsI6RAFq-36" target="KhEppakhv04ynsI6RAFq-9">
          <mxGeometry x="-0.0151" y="-9" width="160" relative="1" as="geometry">
            <mxPoint x="730" y="472.5" as="sourcePoint" />
            <mxPoint x="600" y="170" as="targetPoint" />
            <mxPoint as="offset" />
            <Array as="points">
              <mxPoint x="200" y="180" />
            </Array>
          </mxGeometry>
        </mxCell>
        <mxCell id="KhEppakhv04ynsI6RAFq-59" value="&amp;lt;&amp;lt;mitigates&amp;gt;&amp;gt;" style="endArrow=open;endSize=12;dashed=1;html=1;rounded=0;exitX=0.636;exitY=0.045;exitDx=0;exitDy=0;exitPerimeter=0;" edge="1" parent="1" target="KhEppakhv04ynsI6RAFq-36" source="KhEppakhv04ynsI6RAFq-57">
          <mxGeometry width="160" relative="1" as="geometry">
            <mxPoint x="620" y="555" as="sourcePoint" />
            <mxPoint x="833" y="445" as="targetPoint" />
            <Array as="points">
              <mxPoint x="670" y="310" />
            </Array>
          </mxGeometry>
        </mxCell>
        <mxCell id="KhEppakhv04ynsI6RAFq-60" value="&amp;lt;&amp;lt;includes&amp;gt;&amp;gt;" style="endArrow=open;endSize=12;dashed=1;html=1;rounded=0;exitX=0.75;exitY=0.939;exitDx=0;exitDy=0;exitPerimeter=0;" edge="1" parent="1" source="KhEppakhv04ynsI6RAFq-32" target="KhEppakhv04ynsI6RAFq-54">
          <mxGeometry width="160" relative="1" as="geometry">
            <mxPoint x="372" y="300" as="sourcePoint" />
            <mxPoint x="525" y="493" as="targetPoint" />
          </mxGeometry>
        </mxCell>
        <mxCell id="KhEppakhv04ynsI6RAFq-61" value="&amp;lt;&amp;lt;includes&amp;gt;&amp;gt;" style="endArrow=open;endSize=12;dashed=1;html=1;rounded=0;exitX=0.219;exitY=0.971;exitDx=0;exitDy=0;exitPerimeter=0;" edge="1" parent="1" source="KhEppakhv04ynsI6RAFq-32">
          <mxGeometry width="160" relative="1" as="geometry">
            <mxPoint x="580" y="556" as="sourcePoint" />
            <mxPoint x="830" y="700" as="targetPoint" />
            <Array as="points">
              <mxPoint x="410" y="700" />
            </Array>
          </mxGeometry>
        </mxCell>
        <mxCell id="KhEppakhv04ynsI6RAFq-62" value="Upload/Download sensitvebData" style="ellipse;whiteSpace=wrap;html=1;" vertex="1" parent="1">
          <mxGeometry x="400" y="230" width="120" height="70" as="geometry" />
        </mxCell>
        <mxCell id="KhEppakhv04ynsI6RAFq-63" value="&amp;lt;&amp;lt;includes&amp;gt;&amp;gt;" style="endArrow=open;endSize=12;dashed=1;html=1;rounded=0;exitX=0.5;exitY=0;exitDx=0;exitDy=0;entryX=0;entryY=0.5;entryDx=0;entryDy=0;" edge="1" parent="1" source="KhEppakhv04ynsI6RAFq-9" target="KhEppakhv04ynsI6RAFq-62">
          <mxGeometry width="160" relative="1" as="geometry">
            <mxPoint x="372" y="435" as="sourcePoint" />
            <mxPoint x="505" y="502" as="targetPoint" />
          </mxGeometry>
        </mxCell>
        <mxCell id="KhEppakhv04ynsI6RAFq-64" value="&amp;lt;&amp;lt;includes&amp;gt;&amp;gt;" style="endArrow=open;endSize=12;dashed=1;html=1;rounded=0;exitX=1;exitY=0.5;exitDx=0;exitDy=0;entryX=0;entryY=0;entryDx=0;entryDy=0;" edge="1" parent="1" source="KhEppakhv04ynsI6RAFq-62" target="KhEppakhv04ynsI6RAFq-57">
          <mxGeometry width="160" relative="1" as="geometry">
            <mxPoint x="240" y="375" as="sourcePoint" />
            <mxPoint x="410" y="275" as="targetPoint" />
          </mxGeometry>
        </mxCell>
        <mxCell id="KhEppakhv04ynsI6RAFq-65" value="Role based Access Control" style="ellipse;whiteSpace=wrap;html=1;" vertex="1" parent="1">
          <mxGeometry x="240" y="580" width="120" height="70" as="geometry" />
        </mxCell>
        <mxCell id="KhEppakhv04ynsI6RAFq-66" value="&amp;lt;&amp;lt;includes&amp;gt;&amp;gt;" style="endArrow=open;endSize=12;dashed=1;html=1;rounded=0;exitX=0.009;exitY=0.728;exitDx=0;exitDy=0;exitPerimeter=0;entryX=0.5;entryY=0;entryDx=0;entryDy=0;" edge="1" parent="1" source="KhEppakhv04ynsI6RAFq-32" target="KhEppakhv04ynsI6RAFq-65">
          <mxGeometry width="160" relative="1" as="geometry">
            <mxPoint x="480" y="516" as="sourcePoint" />
            <mxPoint x="611" y="604" as="targetPoint" />
          </mxGeometry>
        </mxCell>
        <mxCell id="KhEppakhv04ynsI6RAFq-67" value="Multi Factor Access Code" style="ellipse;whiteSpace=wrap;html=1;" vertex="1" parent="1">
          <mxGeometry x="240" y="710" width="120" height="70" as="geometry" />
        </mxCell>
        <mxCell id="KhEppakhv04ynsI6RAFq-68" value="&amp;lt;&amp;lt;includes&amp;gt;&amp;gt;" style="endArrow=open;endSize=12;dashed=1;html=1;rounded=0;entryX=0.5;entryY=0;entryDx=0;entryDy=0;" edge="1" parent="1" source="KhEppakhv04ynsI6RAFq-65" target="KhEppakhv04ynsI6RAFq-67">
          <mxGeometry width="160" relative="1" as="geometry">
            <mxPoint x="391" y="501" as="sourcePoint" />
            <mxPoint x="310" y="590" as="targetPoint" />
          </mxGeometry>
        </mxCell>
        <mxCell id="KhEppakhv04ynsI6RAFq-69" value="&amp;lt;&amp;lt;mitigates&amp;gt;&amp;gt;" style="endArrow=open;endSize=12;dashed=1;html=1;rounded=0;exitX=0.991;exitY=0.606;exitDx=0;exitDy=0;exitPerimeter=0;" edge="1" parent="1" source="KhEppakhv04ynsI6RAFq-67">
          <mxGeometry width="160" relative="1" as="geometry">
            <mxPoint x="480" y="516" as="sourcePoint" />
            <mxPoint x="960" y="480" as="targetPoint" />
            <Array as="points">
              <mxPoint x="960" y="750" />
            </Array>
          </mxGeometry>
        </mxCell>
        <mxCell id="KhEppakhv04ynsI6RAFq-73" value="" style="html=1;outlineConnect=0;whiteSpace=wrap;fillColor=#272716;verticalLabelPosition=bottom;verticalAlign=top;align=center;shape=mxgraph.archimate3.actor;" vertex="1" parent="1">
          <mxGeometry x="1050" y="370" width="50" height="95" as="geometry" />
        </mxCell>
        <mxCell id="KhEppakhv04ynsI6RAFq-74" value="Rob, The Rogue Admin" style="text;html=1;align=center;verticalAlign=middle;resizable=0;points=[];autosize=1;strokeColor=none;fillColor=none;" vertex="1" parent="1">
          <mxGeometry x="995" y="458" width="150" height="30" as="geometry" />
        </mxCell>
      </root>
    </mxGraphModel>
  </diagram>
</mxfile>
